<svg width="16" height="16" viewBox="0 0 16 16" fill="none" xmlns="http://www.w3.org/2000/svg">
<rect width="16" height="16" fill="black"/>
<path d="M1.28125 11V10.5078L1.91797 10.3984V5.91797L1.28125 5.80859V5.3125H1.91797H2.6875H3.32422V5.80859L2.6875 5.91797V10.4102H4.69922L4.78906 9.51172H5.37891V11H1.28125ZM6.33203 11V10.5078L6.96875 10.3984V5.89453H5.67969L5.56641 6.68359H4.98828V5.3125H9.71484V6.68359H9.14453L9.02734 5.89453H7.73828V10.3984L8.375 10.5078V11H6.33203ZM12.8828 11.082C12.3125 11.082 11.8359 10.957 11.4531 10.707C11.0729 10.457 10.7865 10.1146 10.5938 9.67969C10.4036 9.24479 10.3086 8.7513 10.3086 8.19922V8.11719C10.3086 7.5599 10.4089 7.0651 10.6094 6.63281C10.8099 6.19792 11.0977 5.85547 11.4727 5.60547C11.8477 5.35547 12.2956 5.23047 12.8164 5.23047C13.1836 5.23047 13.5195 5.28776 13.8242 5.40234C14.1289 5.51693 14.3815 5.66276 14.582 5.83984V7.06641H13.9688L13.8867 6.16797C13.8034 6.10286 13.707 6.04818 13.5977 6.00391C13.4909 5.95964 13.3711 5.92578 13.2383 5.90234C13.1081 5.87891 12.9661 5.86719 12.8125 5.86719C12.4401 5.86719 12.125 5.96354 11.8672 6.15625C11.6094 6.34635 11.4141 6.60938 11.2812 6.94531C11.1484 7.28125 11.082 7.66927 11.082 8.10938V8.19922C11.082 8.67578 11.1523 9.08333 11.293 9.42188C11.4362 9.75781 11.6432 10.0143 11.9141 10.1914C12.1875 10.3685 12.5195 10.457 12.9102 10.457C13.0924 10.457 13.2708 10.4349 13.4453 10.3906C13.6198 10.3464 13.7643 10.2891 13.8789 10.2188L13.9648 9.42578H14.5664V10.6602C14.3529 10.793 14.0977 10.8971 13.8008 10.9727C13.5039 11.0456 13.1979 11.082 12.8828 11.082Z" fill="white"/>
</svg>
